<svg xmlns="http://www.w3.org/2000/svg" width="55.69" height="55.66" viewBox="0 0 55.69 55.66">
  <metadata><?xpacket begin="﻿" id="W5M0MpCehiHzreSzNTczkc9d"?>
<x:xmpmeta xmlns:x="adobe:ns:meta/" x:xmptk="Adobe XMP Core 5.6-c138 79.159824, 2016/09/14-01:09:01        ">
   <rdf:RDF xmlns:rdf="http://www.w3.org/1999/02/22-rdf-syntax-ns#">
      <rdf:Description rdf:about=""/>
   </rdf:RDF>
</x:xmpmeta>
                                                                                                    
                                                                                                    
                                                                                                    
                                                                                                    
                                                                                                    
                                                                                                    
                                                                                                    
                                                                                                    
                                                                                                    
                                                                                                    
                                                                                                    
                                                                                                    
                                                                                                    
                                                                                                    
                                                                                                    
                                                                                                    
                                                                                                    
                                                                                                    
                                                                                                    
                                                                                                    
                           
<?xpacket end="w"?></metadata>
<defs>
    <style>
      .cls-1 {
        fill: #b88b58;
        fill-rule: evenodd;
      }
    </style>
  </defs>
  <path id="Gear" class="cls-1" d="M1085.33,1604.97a11.265,11.265,0,1,0-11.27-11.26A11.271,11.271,0,0,0,1085.33,1604.97Zm0-19.21a7.945,7.945,0,1,1-7.95,7.94A7.947,7.947,0,0,1,1085.33,1585.76Zm-24.36,14.64h4.16a12.731,12.731,0,0,0,1.58,3.61l-2.97,2.94a3.458,3.458,0,0,0,0,4.89l3.84,3.82a3.409,3.409,0,0,0,2.45,1.02,3.45,3.45,0,0,0,2.45-1.02l3.07-3.08a20.4,20.4,0,0,0,3.42,1.41l-0.01,4.49a3.717,3.717,0,0,0,3.69,3.52h5.42a3.46,3.46,0,0,0,3.35-3.57v-4.45a14.671,14.671,0,0,0,3.58-1.52l3.22,3.2a3.441,3.441,0,0,0,2.45,1.01,3.481,3.481,0,0,0,2.46-1.01l3.84-3.83a3.483,3.483,0,0,0,0-4.91l-3.11-3.11-0.08-.05c0.58-1.1,1.06-2.53,1.44-3.36h4.53a3.432,3.432,0,0,0,3.27-3.65v-5.42a3.228,3.228,0,0,0-3.27-3.39h-4.4a12.867,12.867,0,0,0-1.45-3.66l3.07-3.09a3.5,3.5,0,0,0,0-4.92l-3.83-3.84a3.475,3.475,0,0,0-2.45-1.01,3.4,3.4,0,0,0-2.45,1.01l-2.96,2.96a21.987,21.987,0,0,0-3.86-1.62v-4.07a3.269,3.269,0,0,0-3.35-3.37h-5.42a3.533,3.533,0,0,0-3.69,3.32v4.1a27.307,27.307,0,0,0-3.69,1.5l-2.81-2.82a3.44,3.44,0,0,0-4.89,0l-3.83,3.83a3.483,3.483,0,0,0,0,4.91l2.82,2.86a13.438,13.438,0,0,0-1.6,3.91h-3.99a3.524,3.524,0,0,0-3.62,3.39v5.42A3.768,3.768,0,0,0,1060.97,1600.4Zm0-9.14h5.31a1.706,1.706,0,0,0,1.63-1.4,14.327,14.327,0,0,1,2.17-5.28,1.676,1.676,0,0,0-.3-2.12l-3.69-3.64a0.145,0.145,0,0,1,0-.21l3.83-3.83a0.308,0.308,0,0,1,.19,0l3.13,3.14,0.42,0.5a1.648,1.648,0,0,0,2.14.34,23.057,23.057,0,0,1,5.28-2.19,1.671,1.671,0,0,0,1.2-1.6v-5.26a0.6,0.6,0,0,1,.37-0.15l5.42-.02a0.154,0.154,0,0,1,.03.11v4.16l0.07,1.33a1.661,1.661,0,0,0,1.26,1.52,18.151,18.151,0,0,1,5.24,2.22,1.655,1.655,0,0,0,2.09-.25l3.83-3.85a0.134,0.134,0,0,1,.2,0l3.83,3.83a0.145,0.145,0,0,1,0,.21l-3.17,3.17-0.77.75a1.654,1.654,0,0,0-.27,2.04,18.1,18.1,0,0,1,2.04,5.14,1.723,1.723,0,0,0,1.62,1.34h5.6c0.02,0,.03,0,0.03.07v5.42a1.027,1.027,0,0,1-.04.32h-5.69a1.623,1.623,0,0,0-1.61,1.21,17.411,17.411,0,0,1-1.99,4.73,1.646,1.646,0,0,0,.1,1.85l0.81,1.06a1.1,1.1,0,0,0,.15.16l3.19,3.19a0.166,0.166,0,0,1,0,.21l-3.84,3.83a0.157,0.157,0,0,1-.22-0.01l-3.23-3.21-0.94-.9a1.648,1.648,0,0,0-2.02-.22,12.945,12.945,0,0,1-4.93,2.06,1.66,1.66,0,0,0-1.34,1.63v5.77c0,0.1-.03.25-0.02,0.25h-5.43a0.781,0.781,0,0,1-.37-0.2v-3.97l0.07-1.7a1.668,1.668,0,0,0-1.29-1.69,17.314,17.314,0,0,1-4.93-2.01,1.6,1.6,0,0,0-.84-0.24,1.668,1.668,0,0,0-1.16.47l-4,3.97a0.166,0.166,0,0,1-.21,0l-3.83-3.83a0.166,0.166,0,0,1,0-.21l3.88-3.88a1.649,1.649,0,0,0,.22-2.06,17.46,17.46,0,0,1-2.2-5.05,1.615,1.615,0,0,0-1.61-1.21h0l-5.41-.04a0.454,0.454,0,0,1-.29-0.25v-5.37A0.344,0.344,0,0,1,1060.97,1591.26Z" transform="translate(-1057.34 -1566.34)"/>
</svg>
