<svg xmlns="http://www.w3.org/2000/svg" width="57.844" height="57.84" viewBox="0 0 57.844 57.84">
  <metadata><?xpacket begin="﻿" id="W5M0MpCehiHzreSzNTczkc9d"?>
<x:xmpmeta xmlns:x="adobe:ns:meta/" x:xmptk="Adobe XMP Core 5.6-c138 79.159824, 2016/09/14-01:09:01        ">
   <rdf:RDF xmlns:rdf="http://www.w3.org/1999/02/22-rdf-syntax-ns#">
      <rdf:Description rdf:about=""/>
   </rdf:RDF>
</x:xmpmeta>
                                                                                                    
                                                                                                    
                                                                                                    
                                                                                                    
                                                                                                    
                                                                                                    
                                                                                                    
                                                                                                    
                                                                                                    
                                                                                                    
                                                                                                    
                                                                                                    
                                                                                                    
                                                                                                    
                                                                                                    
                                                                                                    
                                                                                                    
                                                                                                    
                                                                                                    
                                                                                                    
                           
<?xpacket end="w"?></metadata>
<defs>
    <style>
      .cls-1 {
        fill: #b88b58;
        fill-rule: evenodd;
      }
    </style>
  </defs>
  <path id="Support" class="cls-1" d="M895.176,1615.77a33.067,33.067,0,0,1-5.405-.46L877.1,1623v-12.8c-6.6-4.63-10.843-11.74-10.843-19.73,0-13.97,12.946-25.3,28.915-25.3s28.914,11.33,28.914,25.3S911.145,1615.77,895.176,1615.77Zm0-46.98c-13.973,0-25.3,9.7-25.3,21.68,0,7.35,4.275,13.83,10.8,17.75l-0.114,8.39,8.507-5.12a29.088,29.088,0,0,0,6.109.67c13.973,0,25.3-9.71,25.3-21.69S909.149,1568.79,895.176,1568.79Zm14.457,25.3a3.615,3.615,0,1,1,3.614-3.62A3.617,3.617,0,0,1,909.633,1594.09Zm-14.457,0a3.615,3.615,0,1,1,3.614-3.62A3.617,3.617,0,0,1,895.176,1594.09Zm-14.457,0a3.615,3.615,0,1,1,3.614-3.62A3.617,3.617,0,0,1,880.719,1594.09Z" transform="translate(-866.25 -1565.16)"/>
</svg>
